<?xml version="1.0" standalone="no"?>
<!DOCTYPE svg PUBLIC "-//W3C//DTD SVG 20010904//EN"
 "http://www.w3.org/TR/2001/REC-SVG-20010904/DTD/svg10.dtd">
<svg version="1.0" xmlns="http://www.w3.org/2000/svg"
 width="512.000000pt" height="512.000000pt" viewBox="0 0 512.000000 512.000000"
 preserveAspectRatio="xMidYMid meet">
<metadata>
Created by potrace 1.14, written by Peter Selinger 2001-2017
</metadata>
<g transform="translate(0.000000,512.000000) scale(0.100000,-0.100000)"
fill="#000000" stroke="none">
<path d="M2467 5085 c-1 -2 -47 -5 -102 -9 -55 -4 -116 -9 -135 -12 -317 -46
-540 -114 -805 -244 -605 -297 -1078 -835 -1290 -1466 -39 -117 -80 -274 -90
-344 -4 -25 -10 -65 -15 -90 -33 -175 -33 -535 0 -753 40 -266 128 -538 252
-779 27 -54 61 -114 74 -133 13 -20 24 -38 24 -42 0 -12 137 -200 205 -282
446 -535 1079 -864 1765 -918 463 -37 898 43 1330 245 19 9 71 36 115 61 526
293 931 752 1149 1301 43 111 111 337 122 410 3 19 7 42 9 50 22 78 39 284 39
465 1 183 -7 275 -33 430 -121 711 -551 1344 -1173 1728 -398 246 -837 372
-1331 382 -59 1 -108 1 -110 0z m275 -409 c12 -3 30 -5 40 -5 18 -1 45 -61
121 -266 124 -332 232 -713 292 -1026 4 -18 -15 -19 -616 -19 l-621 0 6 28 c3
15 8 42 11 60 12 73 17 102 35 197 10 55 31 154 45 220 15 66 29 133 32 148 9
52 104 400 144 530 38 121 41 127 67 127 33 1 176 12 179 14 4 4 242 -4 265
-8z m677 -169 c389 -166 731 -457 964 -819 55 -85 167 -298 167 -318 0 -16
-939 -14 -944 3 -3 6 -21 89 -41 182 -44 208 -40 190 -65 289 -42 162 -92 327
-155 516 -36 105 -65 194 -65 197 0 7 37 -6 139 -50z m-1609 36 c0 -3 -16 -63
-35 -132 -38 -139 -85 -335 -116 -481 -11 -52 -22 -104 -25 -115 -11 -51 -64
-356 -70 -402 l-7 -53 -494 0 -494 0 7 23 c15 48 125 250 184 339 182 271 365
445 690 658 61 39 326 167 353 169 4 1 7 -2 7 -6z m-304 -1635 c-22 -213 -29
-812 -13 -1005 l7 -93 -484 0 -485 0 -25 78 c-70 223 -98 395 -99 622 -2 147
5 276 17 335 2 11 7 41 10 68 l7 47 535 0 535 0 -5 -52z m1757 45 c3 -5 8 -42
12 -83 3 -41 8 -88 10 -105 24 -200 24 -783 0 -911 -2 -11 -4 -25 -4 -31 -1
-10 -145 -13 -685 -13 -377 0 -687 4 -690 8 -26 43 -27 820 -1 1057 2 17 3 42
4 58 l1 27 674 0 c371 0 677 -3 679 -7z m1422 -30 c7 -39 10 -60 24 -173 8
-65 6 -407 -2 -445 -3 -11 -8 -40 -11 -65 -18 -132 -54 -282 -93 -388 l-16
-42 -451 2 c-310 2 -450 6 -449 14 1 5 5 66 10 135 14 217 8 631 -12 824 -2
17 -6 63 -10 103 l-7 72 505 0 505 0 7 -37z m-3126 -1565 c6 -29 18 -89 27
-133 9 -44 17 -88 19 -97 18 -87 107 -402 132 -468 3 -8 14 -36 23 -62 l16
-46 -50 20 c-91 35 -262 127 -367 197 -220 146 -440 363 -591 584 l-39 57 410
0 410 0 10 -52z m1657 35 c-3 -10 -14 -54 -25 -98 -68 -275 -147 -489 -273
-738 -56 -111 -74 -137 -91 -138 -12 -1 -35 -3 -52 -5 -42 -6 -406 -6 -430 0
-11 2 -32 5 -47 5 -23 1 -32 10 -53 50 -105 207 -228 604 -279 904 l-7 37 631
0 c597 0 631 -1 626 -17z m1133 -45 c-195 -289 -490 -548 -813 -712 -102 -52
-166 -79 -166 -72 0 3 54 144 85 221 4 11 9 25 11 30 1 6 16 51 32 100 30 88
80 261 88 300 10 53 36 171 39 183 3 9 89 12 385 12 l381 0 -42 -62z"/>
</g>
</svg>
